<?xml version="1.0" standalone="no"?>
<!DOCTYPE svg PUBLIC "-//W3C//DTD SVG 20010904//EN"
 "http://www.w3.org/TR/2001/REC-SVG-20010904/DTD/svg10.dtd">
<svg version="1.0" xmlns="http://www.w3.org/2000/svg"
 width="500.000000pt" height="500.000000pt" viewBox="0 0 500.000000 500.000000"
 preserveAspectRatio="xMidYMid meet">
<metadata>
Created by potrace 1.16, written by Peter Selinger 2001-2019
</metadata>
<g transform="translate(0.000000,500.000000) scale(0.100000,-0.100000)"
fill="#888" stroke="none">
<path d="M2468 4988 c-8 -7 -210 -283 -448 -613 -239 -330 -718 -994 -1067
-1476 -660 -915 -660 -914 -616 -950 12 -11 82 -15 315 -19 l298 -5 -315 -437
c-269 -372 -315 -441 -315 -471 0 -62 0 -61 356 -67 l323 -5 -339 -470 -339
-470 2171 -3 c1194 -1 2173 0 2175 2 2 2 -147 214 -331 471 -185 257 -336 468
-336 471 0 2 143 4 318 4 l319 0 21 23 c27 29 28 53 3 92 -10 17 -152 215
-314 440 l-295 410 293 5 c270 5 295 6 314 24 12 11 21 31 21 46 0 27 -28 68
-885 1260 -483 673 -791 1103 -1008 1405 -126 176 -236 326 -245 333 -9 6 -25
12 -37 12 -12 0 -28 -6 -37 -12z m379 -533 c182 -253 652 -909 1047 -1458 394
-549 716 -1000 716 -1003 0 -2 -138 -3 -307 -2 l-308 3 -155 216 c-85 118
-268 372 -406 565 -768 1070 -888 1235 -905 1244 -10 6 -29 8 -43 4 -18 -4
-212 -265 -757 -1020 l-732 -1015 -304 2 c-167 1 -303 5 -301 9 10 27 2114
2928 2119 2922 3 -4 155 -214 336 -467z m53 -1052 c217 -302 533 -741 702
-978 l309 -430 -327 -3 c-222 -1 -331 1 -340 8 -7 6 -175 238 -374 516 -199
277 -365 504 -369 504 -3 0 -163 -219 -356 -487 -192 -267 -361 -499 -373
-515 l-24 -28 -330 0 c-206 0 -328 4 -326 10 6 16 1403 1950 1409 1950 4 0
183 -246 399 -547z m-1200 -1480 c0 -5 -118 -170 -261 -368 -143 -198 -288
-399 -322 -447 l-62 -88 -333 0 c-209 0 -332 4 -330 10 3 8 436 612 587 818
l61 82 330 0 c181 0 330 -3 330 -7z m2550 -400 c157 -218 302 -421 323 -450
l38 -53 -333 0 -334 0 -300 417 c-164 229 -309 431 -322 450 l-23 33 333 0
333 0 285 -397z"/>
</g>
</svg>
