<svg version="1.1" id="Layer_1" xmlns="http://www.w3.org/2000/svg" xmlns:xlink="http://www.w3.org/1999/xlink" x="0px" y="0px"
	 width="200" viewBox="0 0 207 223" enable-background="new 0 0 207 223" xml:space="preserve">

<path fill="#1c1c1c" opacity="1.000000" stroke="none" 
	d="
M28.070967,158.089401 
	C28.022831,130.261124 27.900818,102.432365 28.087629,74.605675 
	C28.100508,72.687294 29.973822,70.042305 31.732618,68.990662 
	C47.007515,59.857319 62.452370,51.008125 77.850525,42.081051 
	C85.477203,37.659489 93.032623,33.103073 100.806786,28.957399 
	C102.456993,28.077402 105.384682,27.899403 106.936066,28.782244 
	C129.488266,41.616024 151.847778,54.788578 174.409271,67.605682 
	C178.552841,69.959618 180.106827,72.584274 180.058426,77.389389 
	C179.808411,102.217560 179.947937,127.049614 179.930847,151.880280 
	C179.929596,153.703217 179.764297,155.526047 179.066345,157.604706 
	C161.729813,148.201370 145.030838,138.492172 128.262512,128.904282 
	C119.905930,124.126122 111.422356,119.570068 102.843956,114.612595 
	C78.455368,100.244926 54.219044,86.178207 29.637043,72.343208 
	C29.167437,74.384224 28.938316,76.193367 28.935379,78.002861 
	C28.892199,104.601746 28.879133,131.200684 28.661629,157.871246 
	C28.464348,157.942902 28.070967,158.089401 28.070967,158.089401 
z"/>
<path fill="#3c3c3c" opacity="1.000000" stroke="none" 
	d="
M102.996223,114.913559 
	C111.422356,119.570068 119.905930,124.126122 128.262512,128.904282 
	C145.030838,138.492172 161.729813,148.201370 178.809845,157.927017 
	C177.994141,159.037582 176.963745,160.318253 175.637329,161.090439 
	C152.934372,174.307343 130.164993,187.410522 107.502625,200.696304 
	C104.793945,202.284256 102.877693,202.060059 100.292694,200.549118 
	C76.321465,186.538086 52.272671,172.659744 28.158684,158.416138 
	C28.070967,158.089401 28.464348,157.942902 28.897135,157.897903 
	C29.662609,157.790695 29.909822,157.610977 30.420784,157.216309 
	C45.463779,148.669678 60.192745,140.280899 74.838699,131.749634 
z"/>
<path fill="#2c2c2c" opacity="1.000000" stroke="none" 
	d="
M102.843956,114.612602 
	C93.614594,120.532814 84.287514,126.245712 74.838699,131.749634 
	C60.192745,140.280899 45.463779,148.669678 30.398020,156.716797 
	C30.011595,128.246994 29.997156,100.179245 29.982719,72.111496 
	C54.219044,86.178207 78.455368,100.244926 102.843956,114.612602 
z"/>

</svg>