<svg xmlns="http://www.w3.org/2000/svg" version="1.0" preserveAspectRatio="xMidYMid meet" viewBox="0 187 462 126">
<metadata>
Created by potrace 1.16, written by Peter Selinger 2001-2019
</metadata>
<g transform="translate(0.000000,500.000000) scale(0.100000,-0.100000)" fill="#888" stroke="none" data-darkreader-inline-fill="" data-darkreader-inline-stroke="" style="--darkreader-inline-fill: #000000; --darkreader-inline-stroke: none;">
<path d="M271 2755 c-149 -207 -271 -380 -271 -385 0 -5 36 -10 79 -12 l80 -3 -80 -110 c-43 -60 -78 -114 -76 -120 2 -5 40 -12 85 -15 l81 -5 -79 -110 c-44 -60 -80 -113 -80 -117 0 -5 243 -8 540 -8 297 0 540 3 540 8 0 4 -36 57 -80 117 l-79 110 77 3 c42 2 81 7 86 12 5 5 -27 57 -73 122 l-81 113 80 3 c44 2 80 7 80 12 0 9 -494 704 -528 743 -8 9 -19 17 -23 17 -4 0 -129 -169 -278 -375z m549 -14 c143 -199 260 -364 260 -365 0 0 -35 -1 -77 -1 l-77 0 -182 255 c-101 140 -187 255 -193 255 -5 0 -89 -110 -186 -245 -97 -135 -184 -251 -193 -258 -21 -16 -137 -12 -137 5 0 15 508 722 517 720 4 -1 124 -166 268 -366z m-91 -120 c94 -132 171 -241 171 -243 0 -2 -36 -3 -81 -4 l-81 0 -91 128 c-51 70 -94 128 -97 128 -3 0 -45 -57 -95 -127 l-90 -126 -67 -4 c-37 -3 -74 -1 -82 4 -12 6 21 57 156 246 94 130 174 237 179 237 4 0 84 -108 178 -239z m-415 -313 c-21 -29 -58 -81 -82 -115 l-44 -63 -85 0 c-67 0 -83 3 -76 13 5 6 42 58 82 115 l73 102 85 0 85 0 -38 -52z m683 -63 l82 -115 -83 0 -82 0 -59 83 c-32 45 -70 97 -83 115 l-24 32 84 0 83 0 82 -115z"/>
<path d="M4224 2766 c-58 -27 -89 -65 -103 -125 -26 -118 57 -205 223 -231 88 -14 132 -33 141 -60 12 -38 -24 -63 -98 -68 -81 -5 -121 13 -137 63 l-12 35 -64 0 -65 0 7 -37 c10 -59 37 -105 83 -140 49 -38 97 -53 168 -53 154 0 253 70 253 179 0 112 -86 186 -240 206 -75 10 -119 32 -127 63 -8 32 25 61 71 63 98 5 148 -14 165 -62 8 -22 15 -30 27 -25 8 3 36 6 60 6 39 0 44 3 44 23 -1 38 -36 102 -74 134 -49 40 -97 53 -192 53 -62 0 -90 -5 -130 -24z"/>
<path d="M2230 2695 l0 -75 80 0 80 0 0 -235 0 -235 70 0 70 0 0 235 0 235 80 0 80 0 0 75 0 75 -230 0 -230 0 0 -75z"/>
<path d="M2810 2460 l0 -310 225 0 225 0 0 65 0 65 -150 0 -150 0 0 245 0 245 -75 0 -75 0 0 -310z"/>
<path d="M1668 2541 c-65 -120 -138 -257 -164 -305 l-46 -86 86 0 86 0 22 45 22 46 115 -3 116 -3 23 -42 23 -43 85 0 84 0 -53 98 c-28 54 -101 191 -162 305 -60 113 -112 207 -115 207 -3 0 -58 -99 -122 -219z"/>
<path d="M3512 2460 c-89 -165 -162 -302 -162 -305 0 -3 37 -5 83 -5 l83 0 22 45 22 45 115 0 115 0 22 -45 22 -45 84 0 c76 0 83 2 77 18 -9 25 -305 575 -314 585 -5 4 -81 -127 -169 -293z"/>
</g>
</svg>